<svg width="21" height="21" viewBox="0 0 21 21" fill="none" xmlns="http://www.w3.org/2000/svg">
<path d="M6.81057 1.74631H14.145C16.9391 1.74631 19.2093 4.01649 19.2093 6.81057V14.145C19.2093 15.4881 18.6757 16.7763 17.726 17.726C16.7763 18.6757 15.4881 19.2093 14.145 19.2093H6.81057C4.01649 19.2093 1.74631 16.9391 1.74631 14.145V6.81057C1.74631 5.46744 2.27986 4.17933 3.22959 3.22959C4.17933 2.27986 5.46744 1.74631 6.81057 1.74631ZM6.63594 3.4926C5.80227 3.4926 5.00275 3.82378 4.41326 4.41326C3.82378 5.00275 3.4926 5.80227 3.4926 6.63594V14.3196C3.4926 16.0572 4.89837 17.463 6.63594 17.463H14.3196C15.1533 17.463 15.9528 17.1318 16.5423 16.5423C17.1318 15.9528 17.463 15.1533 17.463 14.3196V6.63594C17.463 4.89837 16.0572 3.4926 14.3196 3.4926H6.63594ZM15.0618 4.80233C15.3513 4.80233 15.6289 4.91732 15.8336 5.122C16.0383 5.32668 16.1533 5.60429 16.1533 5.89376C16.1533 6.18323 16.0383 6.46084 15.8336 6.66552C15.6289 6.87021 15.3513 6.9852 15.0618 6.9852C14.7723 6.9852 14.4947 6.87021 14.2901 6.66552C14.0854 6.46084 13.9704 6.18323 13.9704 5.89376C13.9704 5.60429 14.0854 5.32668 14.2901 5.122C14.4947 4.91732 14.7723 4.80233 15.0618 4.80233ZM10.4778 6.11205C11.6357 6.11205 12.7461 6.57201 13.5648 7.39074C14.3836 8.20948 14.8435 9.31992 14.8435 10.4778C14.8435 11.6357 14.3836 12.7461 13.5648 13.5648C12.7461 14.3836 11.6357 14.8435 10.4778 14.8435C9.31992 14.8435 8.20948 14.3836 7.39074 13.5648C6.57201 12.7461 6.11205 11.6357 6.11205 10.4778C6.11205 9.31992 6.57201 8.20948 7.39074 7.39074C8.20948 6.57201 9.31992 6.11205 10.4778 6.11205ZM10.4778 7.85834C9.78307 7.85834 9.1168 8.13432 8.62556 8.62556C8.13432 9.1168 7.85834 9.78307 7.85834 10.4778C7.85834 11.1725 8.13432 11.8388 8.62556 12.33C9.1168 12.8213 9.78307 13.0972 10.4778 13.0972C11.1725 13.0972 11.8388 12.8213 12.33 12.33C12.8213 11.8388 13.0972 11.1725 13.0972 10.4778C13.0972 9.78307 12.8213 9.1168 12.33 8.62556C11.8388 8.13432 11.1725 7.85834 10.4778 7.85834Z" fill="white"/>
</svg>
