<svg width="21" height="21" viewBox="0 0 21 21" fill="none" xmlns="http://www.w3.org/2000/svg">
<path fill-rule="evenodd" clip-rule="evenodd" d="M5.57984 1.96588H15.3861C17.382 1.96588 19 3.58389 19 5.5798V15.386C19 17.382 17.382 19 15.3861 19H5.57984C3.58393 19 1.96592 17.382 1.96592 15.386V5.5798C1.96592 3.58389 3.58393 1.96588 5.57984 1.96588ZM8.59922 6.83312C7.95166 6.84426 7.32065 6.85513 6.76827 6.85513V14.1629H8.81152V8.63776C8.81152 8.63776 10.6324 8.57521 11.2822 8.64819C11.8973 8.72116 12.1231 9.09993 12.1475 9.89916C12.1535 10.421 12.1525 10.8001 12.1507 11.576C12.1493 12.1487 12.1475 12.9376 12.1475 14.1594H14.1907C14.1907 14.1594 14.215 10.8721 14.1907 9.72194C14.1664 7.69258 13.454 6.86903 11.5671 6.82038C10.7028 6.7969 9.63003 6.81537 8.59922 6.83312Z" fill="black"/>
</svg>
