<svg width="22" height="21" viewBox="0 0 22 21" fill="none" xmlns="http://www.w3.org/2000/svg">
<path d="M8.75997 18.8076C9.59819 19.0608 10.4451 19.2093 11.3445 19.2093C13.6602 19.2093 15.8811 18.2893 17.5186 16.6519C19.156 15.0144 20.076 12.7935 20.076 10.4778C20.076 9.33115 19.8501 8.19575 19.4113 7.1364C18.9725 6.07704 18.3294 5.11449 17.5186 4.3037C16.7078 3.49291 15.7452 2.84975 14.6859 2.41095C13.6265 1.97215 12.4911 1.74631 11.3445 1.74631C10.1979 1.74631 9.06245 1.97215 8.00309 2.41095C6.94374 2.84975 5.98119 3.49291 5.1704 4.3037C3.53293 5.94117 2.61301 8.16206 2.61301 10.4778C2.61301 14.1887 4.94431 17.3757 8.23608 18.633C8.1575 17.9519 8.07891 16.8256 8.23608 16.0485L9.2402 11.7351C9.2402 11.7351 8.98699 11.2287 8.98699 10.4254C8.98699 9.22046 9.7379 8.32111 10.5936 8.32111C11.3445 8.32111 11.6937 8.8712 11.6937 9.57845C11.6937 10.3294 11.1961 11.4033 10.9428 12.4336C10.7944 13.2893 11.3969 14.0402 12.27 14.0402C13.8242 14.0402 15.0292 12.3813 15.0292 10.0412C15.0292 7.94566 13.5274 6.5137 11.3707 6.5137C8.9084 6.5137 7.45898 8.34731 7.45898 10.277C7.45898 11.0279 7.70346 11.7875 8.10511 12.2852C8.18369 12.3376 8.18369 12.4074 8.1575 12.5384L7.90428 13.4901C7.90428 13.6386 7.80824 13.691 7.6598 13.5862C6.54217 13.0972 5.89604 11.5081 5.89604 10.2246C5.89604 7.46543 7.8519 4.95949 11.6239 4.95949C14.6275 4.95949 16.9676 7.11617 16.9676 9.98009C16.9676 12.9837 15.1078 15.3936 12.4447 15.3936C11.5977 15.3936 10.7682 14.9396 10.4713 14.407L9.88633 16.4763C9.68551 17.2272 9.13542 18.2313 8.75997 18.8338V18.8076Z" fill="white"/>
</svg>
