<svg width="22" height="21" viewBox="0 0 22 21" fill="none" xmlns="http://www.w3.org/2000/svg">
<path d="M8.75996 18.8076C9.59818 19.0608 10.4451 19.2093 11.3445 19.2093C13.6602 19.2093 15.8811 18.2893 17.5186 16.6519C19.156 15.0144 20.076 12.7935 20.076 10.4778C20.076 9.33115 19.8501 8.19575 19.4113 7.1364C18.9725 6.07704 18.3294 5.11449 17.5186 4.3037C16.7078 3.49291 15.7452 2.84975 14.6859 2.41095C13.6265 1.97215 12.4911 1.74631 11.3445 1.74631C10.1978 1.74631 9.06244 1.97215 8.00308 2.41095C6.94373 2.84975 5.98118 3.49291 5.17039 4.3037C3.53292 5.94117 2.613 8.16206 2.613 10.4778C2.613 14.1887 4.9443 17.3757 8.23607 18.633C8.15749 17.9519 8.0789 16.8256 8.23607 16.0485L9.24019 11.7351C9.24019 11.7351 8.98698 11.2287 8.98698 10.4254C8.98698 9.22046 9.73788 8.32111 10.5936 8.32111C11.3445 8.32111 11.6937 8.8712 11.6937 9.57845C11.6937 10.3294 11.196 11.4033 10.9428 12.4336C10.7944 13.2893 11.3969 14.0402 12.27 14.0402C13.8242 14.0402 15.0292 12.3813 15.0292 10.0412C15.0292 7.94566 13.5273 6.5137 11.3707 6.5137C8.90839 6.5137 7.45897 8.34731 7.45897 10.277C7.45897 11.0279 7.70345 11.7875 8.1051 12.2852C8.18368 12.3376 8.18368 12.4074 8.15749 12.5384L7.90427 13.4901C7.90427 13.6386 7.80823 13.691 7.65979 13.5862C6.54216 13.0972 5.89603 11.5081 5.89603 10.2246C5.89603 7.46543 7.85188 4.95949 11.6239 4.95949C14.6275 4.95949 16.9676 7.11617 16.9676 9.98009C16.9676 12.9837 15.1077 15.3936 12.4446 15.3936C11.5977 15.3936 10.7682 14.9396 10.4713 14.407L9.88632 16.4763C9.6855 17.2272 9.13541 18.2313 8.75996 18.8338V18.8076Z" fill="black"/>
</svg>
