<svg width="21" height="21" viewBox="0 0 21 21" fill="none" xmlns="http://www.w3.org/2000/svg">
<g clip-path="url(#clip0_556_445)">
<path d="M14.5999 9.87421C14.5264 9.83851 14.4515 9.80491 14.3752 9.77201C14.2429 7.33531 12.9115 5.94021 10.6757 5.92621C10.6659 5.92621 10.6554 5.92621 10.6456 5.92621C9.3086 5.92621 8.1963 6.49671 7.5117 7.53551L8.7409 8.37901C9.2519 7.60341 10.0548 7.43751 10.6456 7.43751C10.6526 7.43751 10.6596 7.43751 10.6659 7.43751C11.4023 7.44241 11.9574 7.65591 12.3172 8.07381C12.579 8.37761 12.754 8.79761 12.8401 9.32751C12.1877 9.21691 11.4814 9.18261 10.7268 9.22601C8.6016 9.34851 7.2352 10.5882 7.3269 12.3102C7.3738 13.1838 7.8085 13.9356 8.5526 14.4263C9.1812 14.8414 9.9911 15.0444 10.8332 14.9982C11.9448 14.9373 12.817 14.5131 13.4253 13.7375C13.8873 13.1488 14.1799 12.3851 14.3087 11.424C14.8386 11.7439 15.2313 12.1646 15.4476 12.67C15.8165 13.5296 15.8375 14.9422 14.6853 16.0944C13.6752 17.1031 12.4614 17.5399 10.6267 17.5532C8.5911 17.5378 7.0525 16.8854 6.0515 15.6135C5.1142 14.4221 4.6298 12.7015 4.6123 10.4993C4.6305 8.29711 5.1149 6.57651 6.0515 5.38511C7.0525 4.11321 8.5918 3.46011 10.6267 3.44541C12.677 3.46081 14.2429 4.11671 15.2817 5.39491C15.7913 6.02211 16.1756 6.81031 16.4283 7.72941L17.8689 7.34511C17.5623 6.21391 17.0786 5.23881 16.422 4.43031C15.0899 2.79161 13.1418 1.95161 10.6316 1.93411H10.6218C8.1165 1.95161 6.1901 2.79441 4.8958 4.43941C3.7443 5.90311 3.15 7.94011 3.1304 10.4937V10.5V10.5063C3.1507 13.0599 3.7443 15.0969 4.8958 16.5606C6.1901 18.2056 8.1165 19.0491 10.6218 19.0659H10.6316C12.859 19.0505 14.4284 18.4674 15.722 17.1752C17.4139 15.4847 17.3628 13.3658 16.8056 12.0652C16.4052 11.1321 15.6429 10.3747 14.5999 9.87421ZM10.7541 13.4897C9.8224 13.5422 8.855 13.1243 8.8067 12.2283C8.771 11.564 9.2792 10.8234 10.8108 10.7352C10.9865 10.7254 11.158 10.7198 11.3274 10.7198C11.8839 10.7198 12.404 10.7737 12.8772 10.8773C12.7008 13.0816 11.6655 13.4393 10.7534 13.4897H10.7541Z" fill="white"/>
</g>
<defs>
<clipPath id="clip0_556_445">
<rect width="21" height="21" fill="white"/>
</clipPath>
</defs>
</svg>
