<svg width="22" height="21" viewBox="0 0 22 21" fill="none" xmlns="http://www.w3.org/2000/svg">
<path d="M20.5665 5.23888C19.8941 5.54448 19.1694 5.74531 18.4185 5.84135C19.1869 5.37858 19.7806 4.64514 20.06 3.76326C19.3353 4.19983 18.532 4.50544 17.6851 4.68007C16.9953 3.92916 16.0261 3.49258 14.9259 3.49258C12.874 3.49258 11.1976 5.16903 11.1976 7.23839C11.1976 7.53526 11.2325 7.8234 11.2936 8.09408C8.18522 7.93691 5.41734 6.44382 3.575 4.18237C3.25193 4.73245 3.06857 5.37858 3.06857 6.05964C3.06857 7.36063 3.72343 8.51319 4.73629 9.16805C4.11635 9.16805 3.54007 8.99342 3.03365 8.73147V8.75767C3.03365 10.5738 4.32591 12.0931 6.03728 12.4336C5.48783 12.584 4.911 12.6049 4.3521 12.4947C4.58925 13.2391 5.05371 13.8904 5.68017 14.3571C6.30664 14.8238 7.06362 15.0825 7.84469 15.0967C6.52068 16.1449 4.87948 16.7114 3.19081 16.7033C2.89394 16.7033 2.59707 16.6859 2.3002 16.6509C3.95918 17.7162 5.9325 18.3361 8.04552 18.3361C14.9259 18.3361 18.7067 12.6257 18.7067 7.67496C18.7067 7.50907 18.7067 7.3519 18.6979 7.186C19.4314 6.66211 20.06 5.99852 20.5665 5.23888Z" fill="white"/>
</svg>
